<svg width="480" height="480" xmlns="http://www.w3.org/2000/svg" xmlns:xlink="http://www.w3.org/1999/xlink" xml:space="preserve" overflow="hidden"><defs><clipPath id="clip0"><rect x="400" y="120" width="480" height="480"/></clipPath></defs><g clip-path="url(#clip0)" transform="translate(-400 -120)"><path d="M640.125 240.913 520.125 240.913C503.557 240.913 490.125 254.345 490.125 270.913L490.125 330.913C490.125 347.481 503.557 360.913 520.125 360.913L520.125 390.087 549.125 360.913 609.875 360.913 640.125 360.913C656.693 360.913 670.125 347.481 670.125 330.913L670.125 329.913 670.125 270.913C670.125 254.345 656.693 240.913 640.125 240.913Z" fill="#737373"/><path d="M759.875 329.913 670.125 329.913 639.875 329.913C623.307 329.913 609.875 343.345 609.875 359.913L609.875 360.913 609.875 419.913C609.875 436.481 623.307 449.913 639.875 449.913L730.875 449.913 759.875 479.087 759.875 449.913C776.443 449.913 789.875 436.481 789.875 419.913L789.875 359.913C789.875 343.345 776.443 329.913 759.875 329.913Z" fill="#FFC000"/><path d="M670.125 330.838 670.125 329.846C670.125 329.84 670.121 329.836 670.115 329.836L639.8 329.836C623.19 329.836 609.725 343.301 609.725 359.911L609.725 360.903C609.725 360.909 609.729 360.913 609.735 360.913L640.05 360.913C656.66 360.913 670.125 347.448 670.125 330.838Z" fill="#505050"/><path d="M670.375 393.913C670.375 396.674 668.136 398.913 665.375 398.913 662.614 398.913 660.375 396.674 660.375 393.913 660.375 391.152 662.614 388.913 665.375 388.913 668.136 388.913 670.375 391.152 670.375 393.913Z" fill="#FFFFFF"/><path d="M693.375 393.913C693.375 396.674 691.136 398.913 688.375 398.913 685.614 398.913 683.375 396.674 683.375 393.913 683.375 391.152 685.614 388.913 688.375 388.913 691.136 388.913 693.375 391.152 693.375 393.913Z" fill="#FFFFFF"/><path d="M716.375 393.913C716.375 396.674 714.136 398.913 711.375 398.913 708.614 398.913 706.375 396.674 706.375 393.913 706.375 391.152 708.614 388.913 711.375 388.913 714.136 388.913 716.375 391.152 716.375 393.913Z" fill="#FFFFFF"/><path d="M739.375 393.913C739.375 396.674 737.136 398.913 734.375 398.913 731.614 398.913 729.375 396.674 729.375 393.913 729.375 391.152 731.614 388.913 734.375 388.913 737.136 388.913 739.375 391.152 739.375 393.913Z" fill="#FFFFFF"/><path d="M550.625 304.913C550.625 307.674 548.386 309.913 545.625 309.913 542.864 309.913 540.625 307.674 540.625 304.913 540.625 302.152 542.864 299.913 545.625 299.913 548.386 299.913 550.625 302.152 550.625 304.913Z" fill="#FFFFFF"/><path d="M573.625 304.913C573.625 307.674 571.386 309.913 568.625 309.913 565.864 309.913 563.625 307.674 563.625 304.913 563.625 302.152 565.864 299.913 568.625 299.913 571.386 299.913 573.625 302.152 573.625 304.913Z" fill="#FFFFFF"/><path d="M596.625 304.913C596.625 307.674 594.386 309.913 591.625 309.913 588.864 309.913 586.625 307.674 586.625 304.913 586.625 302.152 588.864 299.913 591.625 299.913 594.386 299.913 596.625 302.152 596.625 304.913Z" fill="#FFFFFF"/><path d="M619.625 304.913C619.625 307.674 617.386 309.913 614.625 309.913 611.864 309.913 609.625 307.674 609.625 304.913 609.625 302.152 611.864 299.913 614.625 299.913 617.386 299.913 619.625 302.152 619.625 304.913Z" fill="#FFFFFF"/></g></svg>