<svg width="720" height="720" xmlns="http://www.w3.org/2000/svg" xmlns:xlink="http://www.w3.org/1999/xlink" xml:space="preserve" overflow="hidden"><defs><clipPath id="clip0"><rect x="311" y="101" width="720" height="720"/></clipPath></defs><g clip-path="url(#clip0)" transform="translate(-311 -101)"><path d="M555.694 627.358C566.414 654.361 581.052 663.495 586.325 666.021 587.188 666.927 588.076 667.808 588.997 668.656 591.908 671.341 595.104 673.723 598.497 675.773 601.888 677.827 605.469 679.554 609.145 681.014 612.822 682.475 616.593 683.673 620.403 684.691L620.78 683.182C617.019 682.181 613.306 681.004 609.696 679.574 606.087 678.145 602.583 676.457 599.271 674.456 595.959 672.457 592.846 670.142 590.01 667.53 589.545 667.102 589.089 666.663 588.639 666.219 590.228 662.789 596.808 645.547 584.973 615.734 571.676 582.24 546.258 560.9 546.258 560.9 546.258 560.9 542.397 593.865 555.694 627.358Z" fill="#D1D1D1"/><path d="M491.8 475.939C474.245 500.769 457.199 501.856 457.199 501.856 457.199 501.856 452.54 485.424 470.096 460.594 487.652 435.763 512.735 423.307 512.735 423.307 512.735 423.307 509.356 451.108 491.8 475.939Z" fill="#F1F1F1"/><path d="M495.662 479.356C507.573 492.253 529.941 563.818 507.915 590.376 507.024 591.451 506.526 592.789 506.549 594.185 506.683 602.419 504.026 610.66 499.179 617.323 498.635 616.909 500.389 618.258 497.959 616.396 495.532 614.528 497.289 615.875 496.748 615.457 501.562 609.533 504.411 602.052 504.755 594.424 504.814 593.13 504.237 591.898 503.242 591.067 476.341 568.593 486.282 494.13 495.662 479.356Z" fill="#E5E5E5"/><path d="M392.404 602.76C402.147 617.364 466.47 655.894 497.452 640.712 498.706 640.098 500.125 639.928 501.476 640.278 509.449 642.339 518.083 641.69 525.697 638.54 525.421 637.914 526.323 639.936 525.081 637.137 523.836 634.339 524.733 636.363 524.453 635.74 517.566 639.03 509.625 640.044 502.129 638.589 500.857 638.343 499.795 637.493 499.221 636.331 483.683 604.909 408.966 597.108 392.404 602.76Z" fill="#D1D1D1"/><path d="M484.849 633.674 484.526 634.351C471.225 628.016 457.245 622.675 442.975 618.477L443.187 617.758C457.496 621.966 471.513 627.322 484.849 633.674Z" fill="#E6E6E6"/><path d="M531.972 685.237C566.13 673.754 583.199 684.632 583.199 684.632 583.199 684.632 576.167 703.612 542.009 715.095 507.851 726.577 475.141 720.957 475.141 720.957 475.141 720.957 497.814 696.719 531.972 685.237Z" fill="#D1D1D1"/><path d="M563.664 691.352C563.337 691.422 530.67 698.558 499.53 710.948L499.253 710.251C530.451 697.837 563.178 690.69 563.505 690.619L563.664 691.352Z" fill="#E6E6E6"/><path d="M504.924 345.615C477.922 356.335 468.787 370.974 466.26 376.246 465.355 377.109 464.474 377.997 463.626 378.919 460.941 381.829 458.56 385.026 456.509 388.418 454.455 391.81 452.728 395.391 451.268 399.066 449.807 402.743 448.609 406.514 447.591 410.324L449.1 410.701C450.101 406.94 451.278 403.227 452.708 399.617 454.138 396.008 455.825 392.504 457.826 389.193 459.825 385.881 462.14 382.768 464.752 379.932 465.181 379.466 465.619 379.011 466.063 378.56 469.493 380.149 486.736 386.73 516.548 374.894 550.042 361.597 571.382 336.179 571.382 336.179 571.382 336.179 538.417 332.319 504.924 345.615Z" fill="#D1D1D1"/><path d="M656.344 281.722C631.513 264.167 630.426 247.121 630.426 247.121 630.426 247.121 646.858 242.463 671.688 260.018 696.519 277.573 708.975 302.657 708.975 302.657 708.975 302.657 681.174 299.277 656.344 281.722Z" fill="#F1F1F1"/><path d="M652.926 285.583C640.029 297.494 568.464 319.862 541.906 297.836 540.831 296.945 539.493 296.448 538.097 296.47 529.863 296.604 521.622 293.947 514.959 289.1 515.373 288.556 514.023 290.31 515.886 287.88 517.754 285.453 516.407 287.21 516.826 286.669 522.749 291.483 530.23 294.332 537.858 294.676 539.151 294.735 540.384 294.158 541.215 293.163 563.689 266.262 638.152 276.204 652.926 285.583Z" fill="#E5E5E5"/><path d="M529.521 182.326C514.918 192.069 476.388 256.392 491.57 287.374 492.184 288.628 492.354 290.047 492.004 291.398 489.943 299.371 490.592 308.005 493.742 315.618 494.367 315.343 492.346 316.245 495.145 315.004 497.943 313.758 495.919 314.655 496.542 314.375 493.252 307.488 492.238 299.547 493.693 292.051 493.939 290.779 494.789 289.717 495.951 289.143 527.373 273.605 535.174 198.888 529.521 182.326Z" fill="#D1D1D1"/><path d="M498.609 274.771 497.932 274.448C504.267 261.147 509.607 247.167 513.806 232.897L514.525 233.109C510.315 247.417 504.961 261.434 498.609 274.771Z" fill="#E6E6E6"/><path d="M447.046 321.894C458.529 356.052 447.651 373.121 447.651 373.121 447.651 373.121 428.671 366.089 417.188 331.931 405.706 297.773 411.326 265.063 411.326 265.063 411.326 265.063 435.563 287.735 447.046 321.894Z" fill="#D1D1D1"/><path d="M440.93 353.586C440.859 353.259 433.724 320.592 421.334 289.453L422.031 289.175C434.445 320.373 441.592 353.1 441.664 353.427L440.93 353.586Z" fill="#E6E6E6"/><path d="M786.756 294.927C776.036 267.925 761.398 258.791 756.125 256.264 755.262 255.359 754.374 254.478 753.453 253.63 750.542 250.944 747.346 248.563 743.953 246.513 740.562 244.458 736.98 242.732 733.305 241.272 729.628 239.811 725.857 238.613 722.047 237.595L721.67 239.104C725.431 240.105 729.145 241.282 732.754 242.712 736.363 244.141 739.867 245.829 743.178 247.83 746.49 249.829 749.604 252.144 752.44 254.756 752.905 255.184 753.361 255.623 753.811 256.067 752.222 259.497 745.641 276.739 757.477 306.552 770.774 340.045 796.192 361.386 796.192 361.386 796.192 361.386 800.053 328.422 786.756 294.927Z" fill="#D1D1D1"/><path d="M850.65 446.347C868.205 421.517 885.251 420.43 885.251 420.43 885.251 420.43 889.909 436.862 872.354 461.692 854.799 486.523 829.715 498.979 829.715 498.979 829.715 498.979 833.094 471.177 850.65 446.347Z" fill="#F1F1F1"/><path d="M846.788 442.93C834.877 430.033 812.509 358.467 834.535 331.91 835.426 330.835 835.924 329.496 835.901 328.101 835.767 319.866 838.424 311.626 843.271 304.963 843.815 305.377 842.061 304.027 844.491 305.89 846.918 307.758 845.161 306.411 845.702 306.829 840.888 312.753 838.039 320.234 837.695 327.862 837.636 329.155 838.213 330.388 839.208 331.219 866.109 353.693 856.168 428.156 846.788 442.93Z" fill="#E5E5E5"/><path d="M950.046 319.525C940.303 304.922 875.98 266.392 844.998 281.574 843.745 282.188 842.326 282.357 840.974 282.008 833.001 279.946 824.367 280.596 816.754 283.746 817.029 284.371 816.127 282.349 817.369 285.149 818.614 287.947 817.717 285.923 817.997 286.546 824.884 283.256 832.825 282.242 840.321 283.696 841.593 283.943 842.655 284.793 843.229 285.954 858.767 317.377 933.484 325.178 950.046 319.525Z" fill="#D1D1D1"/><path d="M857.602 288.612 857.924 287.935C871.224 294.271 885.205 299.611 899.475 303.81L899.263 304.529C884.955 300.32 870.937 294.964 857.602 288.612Z" fill="#E6E6E6"/><path d="M810.478 237.05C776.32 248.533 759.251 237.654 759.251 237.654 759.251 237.654 766.283 218.674 800.441 207.192 834.599 195.709 867.309 201.33 867.309 201.33 867.309 201.33 844.636 225.567 810.478 237.05Z" fill="#D1D1D1"/><path d="M778.786 230.934C779.113 230.863 811.78 223.728 842.919 211.338L843.197 212.035C811.998 224.449 779.272 231.596 778.945 231.667L778.786 230.934Z" fill="#E6E6E6"/><path d="M836.908 576.768C863.91 566.049 873.044 551.41 875.571 546.138 876.476 545.275 877.357 544.386 878.205 543.465 880.891 540.555 883.272 537.358 885.322 533.966 887.377 530.574 889.103 526.993 890.563 523.318 892.024 519.641 893.222 515.87 894.24 512.06L892.731 511.683C891.73 515.444 890.553 519.157 889.123 522.767 887.694 526.376 886.006 529.88 884.005 533.191 882.006 536.503 879.691 539.617 877.079 542.452 876.651 542.918 876.212 543.373 875.768 543.824 872.338 542.235 855.096 535.654 825.283 547.49 791.79 560.787 770.449 586.205 770.449 586.205 770.449 586.205 803.414 590.065 836.908 576.768Z" fill="#D1D1D1"/><path d="M685.489 640.662C710.319 658.217 711.406 675.263 711.406 675.263 711.406 675.263 694.974 679.921 670.143 662.366 645.313 644.811 632.857 619.727 632.857 619.727 632.857 619.727 660.658 623.107 685.489 640.662Z" fill="#F1F1F1"/><path d="M688.906 636.801C701.802 624.89 773.368 602.522 799.926 624.548 801 625.439 802.339 625.936 803.735 625.914 811.969 625.779 820.21 628.437 826.872 633.284 826.458 633.828 827.808 632.073 825.945 634.504 824.078 636.93 825.425 635.174 825.006 635.715 819.083 630.901 811.602 628.052 803.974 627.708 802.68 627.649 801.448 628.226 800.617 629.221 778.142 656.122 703.68 646.18 688.906 636.801Z" fill="#E5E5E5"/><path d="M812.31 740.058C826.914 730.315 865.444 665.992 850.262 635.01 849.648 633.756 849.478 632.338 849.828 630.986 851.889 623.013 851.24 614.379 848.09 606.766 847.464 607.041 849.487 606.139 846.687 607.38 843.889 608.626 845.913 607.729 845.289 608.009 848.58 614.896 849.594 622.837 848.139 630.333 847.893 631.605 847.043 632.667 845.881 633.241 814.459 648.779 806.657 723.496 812.31 740.058Z" fill="#D1D1D1"/><path d="M843.223 647.614 843.901 647.936C837.565 661.237 832.224 675.216 828.026 689.487L827.307 689.275C831.516 674.967 836.871 660.95 843.223 647.614Z" fill="#E6E6E6"/><path d="M894.786 600.49C883.303 566.332 894.181 549.263 894.181 549.263 894.181 549.263 913.161 556.295 924.644 590.453 936.127 624.611 930.506 657.321 930.506 657.321 930.506 657.321 906.268 634.649 894.786 600.49Z" fill="#D1D1D1"/><path d="M900.902 568.798C900.973 569.125 908.108 601.792 920.498 632.932L919.801 633.209C907.387 602.01 900.24 569.284 900.168 568.957L900.902 568.798Z" fill="#E6E6E6"/><path d="M624.889 635.031C626.493 645.786 622.396 655.309 615.739 656.302 609.081 657.294 602.384 649.381 600.78 638.626 599.176 627.872 603.273 618.349 609.931 617.356 616.589 616.363 623.286 624.276 624.889 635.031Z" fill="#FFC000"/><path d="M480.899 491.5C485.886 494.05 486.593 502.64 482.478 510.685 478.362 518.731 470.984 523.185 465.997 520.634 461.01 518.083 460.303 509.493 464.418 501.448 468.533 493.403 475.912 488.949 480.899 491.5Z" fill="#FFC000"/><path d="M514.956 399.867C515.949 406.525 508.035 413.222 497.281 414.826 486.526 416.43 477.003 412.333 476.01 405.675 475.017 399.018 482.931 392.32 493.685 390.717 504.44 389.113 513.963 393.21 514.956 399.867Z" fill="#FFC000"/><path d="M630.831 254.329C638.877 258.445 643.331 265.823 640.78 270.81 638.229 275.797 629.639 276.504 621.594 272.389 613.549 268.273 609.095 260.895 611.645 255.908 614.196 250.921 622.786 250.214 630.831 254.329Z" fill="#FFC000"/><path d="M741.684 283.705C743.288 294.459 739.191 303.983 732.533 304.975 725.876 305.968 719.179 298.055 717.575 287.3 715.971 276.546 720.068 267.022 726.726 266.03 733.383 265.037 740.08 272.95 741.684 283.705Z" fill="#FFC000"/><path d="M876.461 401.638C881.448 404.189 882.155 412.779 878.04 420.824 873.924 428.869 866.546 433.323 861.559 430.772 856.572 428.221 855.865 419.632 859.98 411.586 864.095 403.541 871.474 399.087 876.461 401.638Z" fill="#FFC000"/><path d="M865.836 516.754C866.829 523.411 858.915 530.109 848.161 531.712 837.406 533.316 827.883 529.219 826.89 522.562 825.897 515.904 833.811 509.207 844.565 507.603 855.32 505.999 864.843 510.096 865.836 516.754Z" fill="#FFC000"/><path d="M720.246 649.982C728.291 654.097 732.745 661.475 730.194 666.462 727.643 671.449 719.054 672.156 711.008 668.041 702.963 663.926 698.509 656.547 701.06 651.56 703.611 646.573 712.201 645.866 720.246 649.982Z" fill="#FFC000"/><path d="M601.205 669.129 590.203 555.856C590.203 555.856 577.35 586.456 580.834 622.323 583.569 650.484 594.577 663.396 599.182 667.644 607.419 696.584 637.418 702.162 663.206 693.649L662.674 692.188C638.309 700.205 609.968 695.538 601.205 669.129Z" fill="#737373"/><path d="M463.153 391.126 576.425 380.124C576.425 380.124 545.826 367.272 509.958 370.756 481.797 373.491 468.886 384.499 464.638 389.104 435.697 397.341 430.12 427.34 438.632 453.128L440.094 452.596C432.077 428.23 436.744 399.889 463.153 391.126Z" fill="#737373"/><path d="M741.246 253.157 752.247 366.429C752.247 366.429 765.099 335.829 761.616 299.962 758.88 271.8 747.873 258.89 743.268 254.641 735.031 225.701 705.032 220.123 679.244 228.636L679.776 230.098C704.141 222.081 732.482 226.749 741.246 253.157Z" fill="#737373"/><path d="M878.678 531.258 765.406 542.26C765.406 542.26 796.005 555.112 831.873 551.628 860.035 548.893 872.946 537.885 877.194 533.281 906.134 525.042 911.712 495.044 903.199 469.256L901.738 469.788C909.755 494.154 905.087 522.495 878.678 531.258Z" fill="#737373"/><path d="M896.229 453.116C896.139 439.299 894.803 425.482 892.199 411.896 889.864 399.694 886.505 387.682 882.176 376.024 886.831 376.81 890.776 378.474 894.86 381.099 895.571 381.556 896.036 382.318 896.067 383.162 897.315 418.036 959.905 458.541 977.837 460.978 975.25 442.958 934.978 379.578 899.116 380.443 898.192 380.465 897.28 380.187 896.539 379.635 891.949 376.218 886.56 373.879 880.943 372.777 880.514 371.674 880.08 370.574 879.633 369.478 878.136 365.799 876.537 362.162 874.846 358.568 896.357 353.583 924.07 351.858 936.58 331.152L935.211 330.54C925.366 345.525 907.262 349.504 889.879 352.464 894.084 349.902 897.807 346.546 900.753 342.581L899.587 341.637C895.132 347.272 889.01 351.523 882.208 353.748 880.117 354.103 878.057 354.466 876.046 354.853 874.428 355.164 872.814 354.35 872.07 352.879 861.47 331.917 847.577 312.598 831.034 295.855 820.063 284.745 807.823 275.012 794.748 266.474 802.185 264.134 810.36 264.271 817.741 266.857L818.237 265.441C809.843 261.993 800.268 261.664 791.649 264.478 786.873 261.458 781.992 258.592 777.027 255.873 801.658 246.325 891.402 253.057 913.99 251.148 900.677 240.77 827.589 224.934 802.693 249.276 801.93 250.023 800.914 250.451 799.847 250.482 792.418 250.695 785.088 251.244 777.467 252.822 775.042 253.324 771.24 252.777 769.032 251.655 765.334 249.776 761.598 247.973 757.829 246.243 745.016 240.365 723.238 234.981 716.452 233.375 715.914 233.247 715.917 232.484 716.455 232.355 721.325 231.185 733.549 228.783 739.744 232.012 739.744 232.012 740.339 232.036 740.514 231.46 740.689 230.885 740.193 230.571 740.193 230.571 737.031 229.392 733.71 228.665 730.347 228.38 739.757 225.409 748.46 220.962 755.295 212.952 755.983 212.253 754.852 211.215 754.208 211.918 750.678 215.604 746.611 218.734 742.193 221.203 731.945 226.902 719.125 228.5 707.126 230.458 704.891 230.822 702.618 230.851 700.375 230.547 699.173 230.384 697.971 230.232 696.767 230.089 699.383 228.781 702.121 227.251 704.982 225.443 730.688 209.197 744.427 184.792 744.427 184.792 744.427 184.792 716.488 186.727 690.781 202.974 665.841 218.736 663.246 235.175 663.113 236.141 649.297 236.231 635.479 237.568 621.893 240.171 609.691 242.506 597.679 245.866 586.021 250.194 586.807 245.538 588.472 241.594 591.096 237.51 591.552 236.799 592.314 236.334 593.158 236.304 628.032 235.057 668.538 172.465 670.975 154.534 652.955 157.121 589.575 197.392 590.44 233.254 590.462 234.178 590.184 235.09 589.632 235.831 586.215 240.421 583.876 245.811 582.774 251.428 581.671 251.857 580.571 252.291 579.475 252.738 575.797 254.235 572.159 255.834 568.564 257.525 563.58 236.014 561.854 208.301 541.148 195.79L540.537 197.16C555.521 207.004 559.5 225.108 562.46 242.491 559.899 238.286 556.542 234.563 552.577 231.618L551.633 232.783C557.268 237.238 561.52 243.361 563.745 250.163 564.099 252.254 564.461 254.313 564.849 256.324 565.161 257.943 564.346 259.557 562.875 260.301 541.913 270.901 522.594 284.794 505.852 301.337 494.742 312.307 485.009 324.547 476.471 337.621 474.132 330.184 474.268 322.01 476.854 314.629L475.438 314.133C471.99 322.527 471.661 332.102 474.475 340.721 471.455 345.497 468.589 350.377 465.87 355.342 456.322 330.712 463.054 240.968 461.146 218.38 450.767 231.693 434.931 304.781 459.273 329.677 460.02 330.44 460.447 331.455 460.478 332.521 460.691 339.95 461.24 347.281 462.819 354.902 463.321 357.327 462.775 361.129 461.652 363.336 459.773 367.033 457.97 370.77 456.241 374.538 450.361 387.354 444.975 409.141 443.371 415.921 443.244 416.458 442.482 416.455 442.354 415.918 441.184 411.052 438.769 398.835 442 392.637 442 392.637 442.097 392.052 441.497 391.855 440.897 391.658 440.568 392.175 440.568 392.175 439.389 395.336 438.662 398.658 438.377 402.021 435.406 392.611 430.96 383.908 422.95 377.073 422.25 376.384 421.212 377.515 421.915 378.159 425.602 381.69 428.731 385.756 431.2 390.174 436.898 400.423 438.497 413.241 440.454 425.238 440.82 427.477 440.847 429.755 440.542 432.003 440.389 433.132 440.246 434.263 440.11 435.396 438.816 432.814 437.304 430.114 435.522 427.295 419.275 401.59 394.87 387.851 394.87 387.851 394.87 387.851 396.806 415.79 413.052 441.496 428.815 466.436 445.254 469.032 446.22 469.164 446.31 482.981 447.646 496.798 450.25 510.385 452.585 522.586 455.944 534.598 460.273 546.256 455.618 545.47 451.674 543.806 447.59 541.182 446.878 540.726 446.413 539.963 446.383 539.118 445.134 504.249 382.545 463.745 364.613 461.307 367.201 479.328 407.472 542.708 443.334 541.843 444.258 541.821 445.17 542.099 445.911 542.651 450.5 546.068 455.89 548.406 461.507 549.509 461.936 550.612 462.37 551.712 462.817 552.807 464.314 556.486 465.913 560.124 467.604 563.718 446.093 568.702 418.38 570.428 405.87 591.134L407.239 591.745C417.084 576.761 435.188 572.782 452.571 569.822 448.366 572.383 444.643 575.74 441.697 579.705 441.697 579.705 441.51 580.296 441.92 580.607 442.329 580.918 442.863 580.649 442.863 580.649 447.318 575.013 453.44 570.762 460.242 568.537 462.333 568.182 464.392 567.82 466.404 567.433 468.022 567.121 469.636 567.936 470.38 569.406 480.98 590.369 494.873 609.688 511.417 626.43 522.387 637.541 534.627 647.274 547.701 655.812 540.264 658.151 532.089 658.015 524.708 655.428L524.212 656.844C532.606 660.293 542.182 660.622 550.801 657.807 555.576 660.828 560.457 663.693 565.422 666.413 540.792 675.961 451.047 669.229 428.46 671.137 441.771 681.516 514.859 697.352 539.755 673.01 540.519 672.263 541.534 671.835 542.602 671.805 550.03 671.592 557.36 671.043 564.981 669.465 567.407 668.962 571.209 669.509 573.417 670.631 577.114 672.51 580.85 674.314 584.619 676.042 597.437 681.923 619.227 687.309 626.004 688.912 626.541 689.039 626.537 689.8 626.001 689.928 621.136 691.098 608.906 693.507 602.707 690.276 602.707 690.276 602.049 690.241 601.898 690.792 601.747 691.342 602.256 691.715 602.256 691.715 605.417 692.894 608.739 693.621 612.102 693.906 602.692 696.877 593.989 701.323 587.154 709.333 586.465 710.032 587.596 711.07 588.24 710.367 591.771 706.681 595.837 703.552 600.255 701.083 610.504 695.384 623.323 693.786 635.323 691.828 637.567 691.462 639.85 691.438 642.104 691.744 643.183 691.89 644.264 692.025 645.346 692.155 642.645 693.492 639.812 695.068 636.848 696.942 611.143 713.188 597.404 737.593 597.404 737.593 597.404 737.593 625.343 735.658 651.049 719.411 675.989 703.648 678.585 687.21 678.718 686.244 692.534 686.154 706.351 684.817 719.938 682.213 732.139 679.879 744.151 676.519 755.809 672.19 755.023 676.846 753.358 680.791 750.735 684.875 750.278 685.585 749.517 686.051 748.672 686.081 713.798 687.328 673.293 749.919 670.855 767.851 688.875 765.264 752.256 724.992 751.391 689.13 751.369 688.207 751.647 687.294 752.199 686.553 755.616 681.964 757.954 676.574 759.057 670.957 760.159 670.528 761.26 670.094 762.355 669.647 766.034 668.15 769.672 666.551 773.266 664.86 778.25 686.371 779.976 714.084 800.682 726.594L801.293 725.225C786.309 715.38 782.33 697.276 779.37 679.893 781.931 684.099 785.288 687.822 789.253 690.767L790.197 689.602C784.561 685.146 780.31 679.024 778.085 672.222 777.73 670.131 777.368 668.071 776.981 666.06 776.669 664.442 777.484 662.828 778.954 662.084 799.917 651.484 819.236 637.591 835.978 621.048 847.089 610.078 856.822 597.838 865.359 584.763 867.699 592.2 867.563 600.374 864.976 607.755L866.392 608.251C869.841 599.857 870.17 590.282 867.355 581.663 870.375 576.887 873.241 572.007 875.961 567.042 885.509 591.672 878.776 681.416 880.685 704.004 891.064 690.691 906.9 617.603 882.557 592.707 881.811 591.943 881.383 590.928 881.352 589.862 881.139 582.433 880.59 575.102 879.012 567.48 878.509 565.055 879.056 561.255 880.178 559.047 882.057 555.349 883.861 551.613 885.59 547.844 891.468 535.032 896.853 513.254 898.458 506.468 898.585 505.929 899.349 505.932 899.479 506.471 900.648 511.341 903.049 523.565 899.82 529.76 899.82 529.76 899.792 530.372 900.357 530.542 900.922 530.711 901.262 530.208 901.262 530.208 902.441 527.047 903.168 523.725 903.453 520.363 906.424 529.773 910.87 538.476 918.88 545.31 919.579 545.999 920.617 544.868 919.914 544.224 916.228 540.693 913.099 536.627 910.63 532.209 904.932 521.961 903.333 509.143 901.375 497.144 901.014 494.928 900.975 492.672 901.278 490.448 901.483 488.934 901.668 487.417 901.844 485.899 903.24 488.775 904.916 491.809 906.926 494.989 923.172 520.695 947.578 534.433 947.578 534.433 947.578 534.433 945.642 506.494 929.395 480.788 913.634 455.845 897.195 453.249 896.229 453.116ZM892.258 504.037 892.252 504.073C891.831 506.363 890.473 508.387 888.486 509.602 886.792 510.637 885.031 511.566 883.242 512.407 876.343 515.6 868.71 517.157 861.121 517.185 860.121 517.143 860.115 518.698 861.097 518.685 869.977 518.894 879.046 517.027 887.012 513.018 888.546 512.246 890.288 513.592 889.891 515.263 887.431 525.594 884.221 535.755 880.282 545.64 872.701 564.698 862.388 582.699 849.807 599 843.065 602.306 835.336 603.352 827.813 604.021 825.246 604.25 822.692 603.448 820.74 601.767 794.296 578.975 724.131 591.751 709.005 602.354 709.005 602.354 737.745 618.954 773.766 620.01 798.62 620.74 813.186 613.404 819.829 608.785 822.485 606.939 825.621 605.918 828.851 605.737 834.851 605.401 840.954 604.8 846.642 603.009 842.381 608.275 837.888 613.359 833.157 618.221 812.861 639.094 788.388 656.008 761.5 667.576 758.904 668.695 756.279 669.749 753.639 670.768 752.599 670.98 751.313 671.141 750.218 671.249 749.091 671.36 747.956 671.427 746.82 671.447 744.55 671.482 742.271 671.355 740.026 670.997 737.781 670.648 735.565 670.089 733.443 669.271 731.313 668.471 729.297 667.379 727.431 666.069L727.425 666.064C727.261 665.949 727.035 665.984 726.912 666.144 726.786 666.308 726.817 666.543 726.982 666.669 728.847 668.094 730.886 669.307 733.055 670.222 735.216 671.158 737.489 671.828 739.798 672.283 742.108 672.747 744.461 672.973 746.816 673.032 747.049 673.037 747.283 673.032 747.515 673.033 738.424 676.24 729.122 678.87 719.675 680.875 705.59 683.865 691.197 685.482 676.761 685.74 674.199 685.29 669.201 684.853 662.217 686.235 650.894 685.919 639.586 684.757 628.426 682.708L628.39 682.701C626.1 682.281 624.076 680.922 622.861 678.936 621.826 677.242 620.897 675.481 620.056 673.692 616.863 666.793 615.306 659.16 615.277 651.571 615.319 650.572 613.765 650.566 613.777 651.547 613.569 660.427 615.435 669.496 619.445 677.462 620.217 678.996 618.87 680.738 617.199 680.34 606.869 677.881 596.707 674.671 586.823 670.732 567.765 663.151 549.764 652.838 533.463 640.257 530.157 633.515 529.111 625.786 528.442 618.263 528.213 615.697 529.015 613.142 530.696 611.191 553.488 584.746 540.712 514.582 530.109 499.456 530.109 499.456 513.509 528.195 512.452 564.216 511.723 589.07 519.058 603.636 523.677 610.279 525.524 612.935 526.545 616.072 526.725 619.301 527.062 625.301 527.663 631.404 529.455 637.092 524.188 632.831 519.104 628.338 514.242 623.607 493.369 603.311 476.455 578.839 464.887 551.95 463.754 549.32 462.687 546.661 461.655 543.988 461.443 542.947 461.323 541.77 461.214 540.668 461.103 539.541 461.036 538.406 461.016 537.271 460.981 535 461.108 532.721 461.466 530.476 461.815 528.232 462.374 526.014 463.192 523.893 463.992 521.763 465.084 519.747 466.394 517.881L466.398 517.875C466.513 517.711 466.479 517.485 466.319 517.362 466.155 517.236 465.919 517.267 465.793 517.432 464.368 519.297 463.156 521.336 462.241 523.505 461.305 525.667 460.635 527.939 460.18 530.248 459.717 532.558 459.49 534.911 459.431 537.266 459.426 537.499 459.431 537.732 459.43 537.965 456.223 528.874 453.592 519.572 451.589 510.125 448.599 496.04 446.981 481.647 446.724 467.212 447.192 464.547 447.649 459.248 446.056 451.815 446.384 440.601 447.545 429.402 449.575 418.347L449.581 418.311C450.002 416.021 451.36 413.997 453.348 412.783 455.041 411.747 456.802 410.818 458.592 409.977 465.49 406.784 473.124 405.227 480.712 405.198 481.712 405.24 481.718 403.686 480.736 403.698 471.857 403.49 462.787 405.357 454.822 409.366 453.288 410.138 451.546 408.791 451.943 407.121 454.402 396.79 457.612 386.629 461.551 376.744 469.133 357.686 479.445 339.685 492.027 323.384 498.768 320.078 506.497 319.033 514.021 318.363 516.587 318.134 519.141 318.936 521.093 320.617 547.537 343.409 617.702 330.633 632.828 320.03 632.828 320.03 604.089 303.43 568.068 302.373 543.214 301.644 528.648 308.979 522.004 313.599 519.349 315.445 516.212 316.466 512.982 316.647 506.982 316.983 500.88 317.584 495.192 319.376 499.453 314.109 503.946 309.025 508.677 304.164 528.973 283.29 553.445 266.376 580.333 254.809 582.967 253.673 585.63 252.605 588.308 251.572 589.337 251.366 590.534 251.242 591.615 251.136 592.742 251.025 593.877 250.958 595.012 250.938 597.282 250.903 599.562 251.03 601.807 251.388 604.051 251.737 606.268 252.296 608.39 253.114 610.52 253.914 612.535 255.006 614.402 256.316L614.408 256.32C614.572 256.435 614.798 256.401 614.921 256.241 615.047 256.077 615.016 255.841 614.85 255.715 612.986 254.29 610.947 253.078 608.778 252.163 606.616 251.227 604.344 250.557 602.034 250.102 599.724 249.639 597.372 249.411 595.017 249.353 594.784 249.348 594.55 249.353 594.318 249.352 603.409 246.145 612.711 243.514 622.158 241.511 636.243 238.521 650.636 236.903 665.071 236.646 667.693 237.106 672.867 237.553 680.112 236.05 691.476 236.361 702.825 237.523 714.025 239.58L714.06 239.587C716.352 240.007 718.375 241.366 719.589 243.353 720.625 245.046 721.554 246.807 722.395 248.597 725.588 255.495 727.145 263.129 727.174 270.717 727.131 271.717 728.685 271.723 728.674 270.742 728.882 261.862 727.015 252.792 723.006 244.827 722.234 243.293 723.58 241.551 725.251 241.948 735.582 244.408 745.744 247.618 755.628 251.557 774.686 259.138 792.687 269.451 808.988 282.032 812.294 288.774 813.339 296.503 814.009 304.026 814.238 306.593 813.436 309.147 811.755 311.099 788.963 337.543 801.739 407.708 812.342 422.834 812.342 422.834 828.942 394.095 829.998 358.074 830.728 333.22 823.393 318.654 818.773 312.01 816.927 309.354 815.906 306.218 815.725 302.988 815.389 296.988 814.788 290.886 812.997 285.198 818.263 289.458 823.348 293.952 828.209 298.683 849.082 318.979 865.996 343.451 877.564 370.339 878.685 372.94 879.74 375.568 880.761 378.211 880.97 379.248 881.13 380.538 881.238 381.621 881.349 382.749 881.416 383.884 881.436 385.019 881.47 387.289 881.344 389.568 880.986 391.813 880.636 394.058 880.078 396.275 879.259 398.397 878.46 400.527 877.368 402.542 876.057 404.409L876.053 404.415C875.938 404.578 875.973 404.805 876.133 404.928 876.297 405.054 876.532 405.022 876.658 404.857 878.083 402.993 879.295 400.953 880.211 398.784 881.146 396.623 881.817 394.35 882.272 392.041 882.736 389.731 882.962 387.379 883.021 385.023 883.026 384.79 883.021 384.557 883.022 384.324 886.229 393.415 888.859 402.717 890.863 412.164 893.854 426.249 895.471 440.643 895.729 455.078 895.326 457.371 894.934 461.621 895.848 467.498 895.656 479.737 894.473 491.972 892.258 504.037Z" fill="#737373"/><path d="M529.727 546.249C529.727 576.885 528.539 604.201 528.524 604.531L527.775 604.497C527.792 604.098 529.532 564.101 528.795 526.587L529.545 526.572C529.674 533.13 529.727 539.764 529.727 546.249Z" fill="#505050"/><path d="M440.224 535.467 439.778 536.07C413.199 516.449 383.247 482.952 382.948 482.616L383.508 482.118C383.807 482.453 413.708 515.893 440.224 535.467Z" fill="#505050"/><path d="M440.27 456.823 439.732 457.345C439.58 457.189 424.422 441.408 409.473 412.091L410.141 411.751C425.035 440.958 440.119 456.668 440.27 456.823Z" fill="#505050"/><path d="M586.033 319.649C555.396 319.649 528.081 318.461 527.752 318.446L527.784 317.697C528.184 317.714 568.181 319.454 605.695 318.717L605.71 319.467C599.152 319.596 592.518 319.649 586.033 319.649Z" fill="#505050"/><path d="M596.815 230.146 596.212 229.7C615.833 203.121 649.329 173.169 649.666 172.87L650.164 173.43C649.829 173.729 616.389 203.629 596.815 230.146Z" fill="#505050"/><path d="M675.459 230.192 674.937 229.654C675.093 229.502 690.874 214.345 720.191 199.395L720.531 200.063C691.323 214.957 675.614 230.041 675.459 230.192Z" fill="#505050"/><path d="M812.723 376.037C812.723 345.4 813.911 318.085 813.926 317.755L814.675 317.788C814.658 318.188 812.918 358.185 813.655 395.699L812.905 395.714C812.776 389.156 812.723 382.521 812.723 376.037Z" fill="#505050"/><path d="M902.227 386.819 902.672 386.215C929.251 405.837 959.203 439.333 959.502 439.669L958.942 440.168C958.643 439.833 928.743 406.393 902.227 386.819Z" fill="#505050"/><path d="M902.18 465.463 902.719 464.94C902.87 465.096 918.027 480.878 932.977 510.195L932.309 510.535C917.415 481.328 902.331 465.618 902.18 465.463Z" fill="#505050"/><path d="M755.799 602.735C786.435 602.735 813.751 603.923 814.081 603.938L814.047 604.687C813.648 604.67 773.651 602.93 736.137 603.667L736.122 602.917C742.68 602.788 749.314 602.735 755.799 602.735Z" fill="#505050"/><path d="M745.017 692.239 745.62 692.684C725.999 719.263 692.503 749.214 692.167 749.514L691.668 748.953C692.003 748.655 725.443 718.755 745.017 692.239Z" fill="#505050"/><path d="M666.372 692.192 666.895 692.73C666.739 692.882 650.957 708.039 621.64 722.989L621.3 722.321C650.508 707.427 666.217 692.343 666.372 692.192Z" fill="#505050"/><path d="M528.15 656.992C528.15 662.376 521.098 666.742 512.4 666.742 503.701 666.742 496.65 662.376 496.65 656.992 496.65 651.607 503.701 647.242 512.4 647.242 521.098 647.242 528.15 651.607 528.15 656.992Z" fill="#FFC000"/><path d="M442.564 580.099C445.794 583.206 444.351 589.948 439.339 595.159 434.328 600.37 427.647 602.076 424.417 598.969 421.186 595.863 422.63 589.12 427.642 583.91 432.653 578.699 439.334 576.993 442.564 580.099Z" fill="#505050"/><path d="M602.781 690.985C602.781 696.37 595.73 700.735 587.031 700.735 578.333 700.735 571.281 696.37 571.281 690.985 571.281 685.6 578.333 681.235 587.031 681.235 595.73 681.235 602.781 685.6 602.781 690.985Z" fill="#505050"/><path d="M410.523 587.837C415.037 592.83 412.157 602.789 404.092 610.08 396.026 617.372 385.828 619.235 381.314 614.242 376.801 609.249 379.68 599.29 387.746 591.999 395.811 584.707 406.009 582.844 410.523 587.837Z" fill="#FFC000"/><path d="M592.372 704.366C597.132 709.125 594.758 719.216 587.069 726.905 579.381 734.593 569.29 736.967 564.53 732.208 559.771 727.448 562.145 717.357 569.834 709.669 577.522 701.981 587.613 699.606 592.372 704.366Z" fill="#505050"/><path d="M485.04 302.322C485.04 311.02 480.675 318.072 475.29 318.072 469.906 318.072 465.54 311.02 465.54 302.322 465.54 293.623 469.906 286.572 475.29 286.572 480.675 286.572 485.04 293.623 485.04 302.322Z" fill="#FFC000"/><path d="M548.381 217.532C553.592 222.544 555.298 229.225 552.192 232.455 549.085 235.685 542.343 234.241 537.132 229.23 531.921 224.219 530.215 217.537 533.321 214.307 536.428 211.077 543.171 212.521 548.381 217.532Z" fill="#505050"/><path d="M451.047 376.953C451.047 385.651 446.682 392.703 441.297 392.703 435.912 392.703 431.547 385.651 431.547 376.953 431.547 368.254 435.912 361.203 441.297 361.203 446.682 361.203 451.047 368.254 451.047 376.953Z" fill="#505050"/><path d="M540.251 177.647C547.543 185.712 549.406 195.91 544.413 200.424 539.42 204.938 529.461 202.058 522.17 193.993 514.878 185.927 513.015 175.729 518.008 171.215 523.001 166.702 532.96 169.581 540.251 177.647Z" fill="#FFC000"/><path d="M422.609 359.76C430.298 367.448 432.672 377.539 427.912 382.299 423.153 387.058 413.062 384.684 405.374 376.996 397.685 369.307 395.311 359.216 400.07 354.457 404.83 349.697 414.921 352.072 422.609 359.76Z" fill="#505050"/><path d="M845.8 265.294C845.8 270.679 838.749 275.044 830.05 275.044 821.352 275.044 814.3 270.679 814.3 265.294 814.3 259.909 821.352 255.544 830.05 255.544 838.749 255.544 845.8 259.909 845.8 265.294Z" fill="#FFC000"/><path d="M918.074 323.295C921.304 326.401 919.86 333.144 914.849 338.354 909.837 343.565 903.156 345.271 899.926 342.165 896.696 339.058 898.14 332.316 903.151 327.105 908.162 321.894 914.844 320.188 918.074 323.295Z" fill="#505050"/><path d="M771.168 231.3C771.168 236.685 764.117 241.05 755.418 241.05 746.72 241.05 739.668 236.685 739.668 231.3 739.668 225.916 746.72 221.55 755.418 221.55 764.117 221.55 771.168 225.916 771.168 231.3Z" fill="#505050"/><path d="M961.124 307.992C965.637 312.985 962.758 322.943 954.692 330.235 946.627 337.526 936.429 339.389 931.915 334.396 927.401 329.403 930.281 319.445 938.346 312.153 946.412 304.862 956.61 302.998 961.124 307.992Z" fill="#FFC000"/><path d="M777.91 190.078C782.669 194.838 780.295 204.929 772.607 212.617 764.918 220.306 754.827 222.68 750.068 217.921 745.308 213.161 747.683 203.07 755.371 195.382 763.059 187.693 773.15 185.319 777.91 190.078Z" fill="#505050"/><path d="M876.291 620.062C876.291 628.761 871.926 635.812 866.541 635.812 861.156 635.812 856.791 628.761 856.791 620.062 856.791 611.364 861.156 604.312 866.541 604.312 871.926 604.312 876.291 611.364 876.291 620.062Z" fill="#FFC000"/><path d="M804.74 693.133C809.951 698.144 811.657 704.825 808.55 708.055 805.444 711.285 798.701 709.842 793.49 704.83 788.279 699.819 786.573 693.138 789.68 689.908 792.786 686.677 799.529 688.121 804.74 693.133Z" fill="#505050"/><path d="M910.285 545.431C910.285 554.13 905.92 561.181 900.535 561.181 895.151 561.181 890.785 554.13 890.785 545.431 890.785 536.733 895.151 529.681 900.535 529.681 905.92 529.681 910.285 536.733 910.285 545.431Z" fill="#505050"/><path d="M819.65 728.339C826.941 736.405 828.805 746.603 823.811 751.117 818.818 755.63 808.86 752.751 801.568 744.685 794.277 736.62 792.414 726.422 797.407 721.908 802.4 717.394 812.358 720.274 819.65 728.339Z" fill="#FFC000"/><path d="M936.448 545.388C944.137 553.076 946.511 563.167 941.752 567.927 936.992 572.686 926.901 570.312 919.213 562.623 911.524 554.935 909.15 544.844 913.91 540.085 918.669 535.325 928.76 537.699 936.448 545.388Z" fill="#505050"/><path d="M480.672 488.764C470.275 517.282 476.044 534.081 478.122 538.669 471.117 548.026 473.606 560.308 475.169 565.572 475.171 565.58 475.161 565.583 475.157 565.576 459.299 542.096 341.462 556.386 341.462 556.386 341.462 556.386 370.675 572.136 406.712 572.136 437.848 572.136 451.571 560.38 454.728 557.183 472.561 558.933 483.763 573.336 484.764 593.381L485.862 593.355C485.341 584.209 482.604 574.948 476.931 567.644 475.659 563.637 472.029 549.678 479.146 539.815 481.872 538.699 498.936 530.631 510.266 499.555 522.61 465.698 517.82 432.857 517.82 432.857 517.82 432.857 493.017 454.908 480.672 488.764Z" fill="#D1D1D1"/><path d="M507.131 466.259C499.529 500.215 485.161 526.499 485.016 526.761L484.359 526.398C484.503 526.138 498.822 499.941 506.399 466.095L507.131 466.259Z" fill="#E6E6E6"/><path d="M643.518 270.595C615 260.197 598.202 265.966 593.613 268.044 584.256 261.039 571.974 263.528 566.71 265.091 566.702 265.093 566.699 265.083 566.706 265.079 590.186 249.221 575.896 131.384 575.896 131.384 575.896 131.384 560.146 160.597 560.146 196.634 560.146 227.77 571.902 241.493 575.099 244.65 573.349 262.483 558.945 273.685 538.901 274.686L538.927 275.784C548.073 275.263 557.334 272.526 564.638 266.853 568.645 265.581 582.604 261.952 592.467 269.068 593.583 271.794 601.651 288.858 632.728 300.188 666.584 312.532 699.425 307.742 699.425 307.742 699.425 307.742 677.374 282.939 643.518 270.595Z" fill="#D1D1D1"/><path d="M666.023 297.052C632.068 289.45 605.783 275.082 605.521 274.937L605.884 274.281C606.144 274.425 632.341 288.743 666.187 296.32L666.023 297.052Z" fill="#E6E6E6"/><path d="M861.777 433.521C872.176 405.004 866.406 388.206 864.328 383.616 871.333 374.26 868.844 361.978 867.281 356.714 867.279 356.706 867.289 356.703 867.293 356.71 883.151 380.19 1000.99 365.899 1000.99 365.899 1000.99 365.899 971.775 350.149 935.738 350.149 904.602 350.149 890.879 361.905 887.722 365.103 869.889 363.353 858.687 348.949 857.685 328.905L856.588 328.931C857.109 338.076 859.846 347.338 865.519 354.642 866.791 358.649 870.42 372.608 863.305 382.471 860.578 383.587 843.514 391.655 832.184 422.731 819.84 456.588 824.631 489.429 824.631 489.429 824.631 489.429 849.433 467.378 861.777 433.521Z" fill="#D1D1D1"/><path d="M835.319 456.027C842.921 422.071 857.289 395.787 857.434 395.525L858.09 395.887C857.947 396.147 843.628 422.344 836.051 456.191L835.319 456.027Z" fill="#E6E6E6"/><path d="M698.314 651.789C726.832 662.188 743.63 656.418 748.219 654.34 757.575 661.345 769.857 658.856 775.121 657.293 775.129 657.291 775.132 657.301 775.125 657.305 751.645 673.163 765.935 791 765.935 791 765.935 791 781.685 761.787 781.685 725.75 781.685 694.614 769.929 680.891 766.732 677.734 768.481 659.901 782.885 648.699 802.93 647.698L802.903 646.6C793.758 647.121 784.497 649.858 777.193 655.531 773.185 656.802 759.226 660.432 749.364 653.317 748.248 650.589 740.179 633.526 709.103 622.196 675.246 609.852 642.406 614.643 642.406 614.643 642.406 614.643 664.457 639.445 698.314 651.789Z" fill="#D1D1D1"/><path d="M675.808 625.332C709.764 632.934 736.048 647.302 736.31 647.447L735.948 648.103C735.688 647.959 709.491 633.641 675.644 626.064L675.808 625.332Z" fill="#E6E6E6"/><path d="M701.362 691.006C715.834 677.7 735.256 675.072 754.693 675.823L754.771 674.728C735.754 673.993 716.881 676.325 702.275 688.774 697.972 689.121 680.039 692.025 659.988 716.16 636.96 743.878 630.406 776.414 630.406 776.414L701.362 691.006Z" fill="#D1D1D1"/><path d="M441.456 491.812C454.763 506.285 457.391 525.707 456.639 545.143L457.734 545.221C458.47 526.205 456.138 507.332 443.689 492.726 443.341 488.423 440.438 470.49 416.303 450.439 388.585 427.41 356.049 420.856 356.049 420.856L441.456 491.812Z" fill="#D1D1D1"/><path d="M640.47 231.378C625.997 244.684 606.575 247.312 587.139 246.561L587.061 247.656C606.077 248.391 624.95 246.059 639.556 233.61 643.859 233.263 661.792 230.359 681.844 206.224 704.871 178.506 711.426 145.97 711.426 145.97L640.47 231.378Z" fill="#D1D1D1"/><path d="M900.994 430.474C887.687 416.001 885.059 396.579 885.81 377.143L884.715 377.065C883.98 396.081 886.312 414.954 898.761 429.56 899.109 433.863 902.012 451.796 926.147 471.847 953.865 494.875 986.401 501.43 986.401 501.43L900.994 430.474Z" fill="#D1D1D1"/><path d="M461.736 593.51C479.802 591.282 551.513 613.521 560.092 648.35 560.314 649.251 560.82 650.062 561.549 650.635 566.208 654.292 569.985 659.091 572.528 664.442 572.529 664.446 572.523 664.448 572.525 664.452 572.656 664.897 572.384 665.91 571.69 666.256 571.072 666.566 569.947 666.275 569.722 665.672 567.685 660.723 564.549 656.224 560.572 652.635 559.948 652.071 559.093 651.823 558.273 652.014 524.292 659.958 468.789 610.176 461.736 593.51Z" fill="#737373"/><path d="M553.875 646.245 553.404 646.829C533.466 630.792 515.113 620.692 493.69 610.459L494.013 609.783C515.484 620.037 533.88 630.162 553.875 646.245Z" fill="#505050"/><path d="M538.772 251.657C541 269.724 518.76 341.435 483.931 350.013 483.03 350.236 482.219 350.742 481.647 351.471 477.99 356.13 473.203 359.902 467.853 362.445 467.849 362.446 467.847 362.44 467.843 362.442 467.384 362.665 466.27 362.482 465.875 361.634 465.5 360.828 465.978 359.956 466.61 359.644 471.559 357.607 476.058 354.471 479.647 350.494 480.211 349.87 480.459 349.014 480.268 348.195 472.323 314.215 522.106 258.711 538.772 251.657Z" fill="#737373"/><path d="M486.037 343.796 485.453 343.326C501.49 323.388 511.591 305.034 521.823 283.612L522.499 283.935C512.245 305.406 502.12 323.802 486.037 343.796Z" fill="#505050"/><path d="M880.714 328.776C862.648 331.004 790.937 308.764 782.358 273.936 782.136 273.035 781.63 272.224 780.901 271.651 776.242 267.993 772.461 263.188 769.918 257.838 769.917 257.834 769.923 257.832 769.921 257.828 769.687 257.249 770.013 256.387 770.875 256.075 771.777 255.748 772.538 256.2 772.727 256.613 774.764 261.562 777.9 266.061 781.877 269.65 782.502 270.214 783.357 270.462 784.177 270.271 818.158 262.327 873.661 312.11 880.714 328.776Z" fill="#737373"/><path d="M788.575 276.041 789.045 275.457C808.984 291.493 827.337 301.594 848.76 311.826L848.436 312.503C826.966 302.248 808.57 292.123 788.575 276.041Z" fill="#505050"/><path d="M803.059 670.727C800.831 652.66 823.071 580.95 857.899 572.37 858.8 572.148 859.612 571.642 860.184 570.913 863.842 566.254 868.64 562.477 873.991 559.934 873.994 559.932 873.996 559.938 874 559.937 874.45 559.751 875.412 560.176 875.663 560.951 875.926 561.764 875.526 562.601 875.222 562.74 870.273 564.777 865.774 567.913 862.185 571.891 861.621 572.515 861.373 573.37 861.565 574.19 869.508 608.169 819.725 663.672 803.059 670.727Z" fill="#737373"/><path d="M855.794 578.588 856.378 579.058C840.342 598.996 830.241 617.349 820.008 638.773L819.332 638.449C829.588 616.978 839.713 598.582 855.794 578.588Z" fill="#505050"/></g></svg>