<svg width="720" height="720" xmlns="http://www.w3.org/2000/svg" xmlns:xlink="http://www.w3.org/1999/xlink" xml:space="preserve" overflow="hidden"><defs><clipPath id="clip0"><rect x="280" y="0" width="720" height="720"/></clipPath></defs><g clip-path="url(#clip0)" transform="translate(-280 0)"><path d="M340.995 353.855 503.678 322.147 546.434 541.512 383.75 573.22Z" fill="#FFC000"/><path d="M439.247 363.988 604.997 363.988 604.997 587.488 439.247 587.488Z" fill="#F2F2F2"/><path d="M581.372 552.894 462.872 552.894 462.872 552.144 581.372 552.144 581.372 552.894ZM581.372 545.244 462.872 545.244 462.872 545.994 581.372 545.994 581.372 545.244ZM581.372 538.344 462.872 538.344 462.872 539.094 581.372 539.094 581.372 538.344ZM581.372 531.444 462.872 531.444 462.872 532.194 581.372 532.194 581.372 531.444ZM581.372 524.544 462.872 524.544 462.872 525.294 581.372 525.294 581.372 524.544ZM581.372 517.644 462.872 517.644 462.872 518.394 581.372 518.394 581.372 517.644ZM581.372 510.744 462.872 510.744 462.872 511.494 581.372 511.494 581.372 510.744ZM581.372 503.844 462.872 503.844 462.872 504.594 581.372 504.594 581.372 503.844ZM581.372 496.944 462.872 496.944 462.872 497.694 581.372 497.694 581.372 496.944ZM581.372 490.044 462.872 490.044 462.872 490.794 581.372 490.794 581.372 490.044ZM581.372 483.144 462.872 483.144 462.872 483.894 581.372 483.894 581.372 483.144ZM581.372 476.244 462.872 476.244 462.872 476.994 581.372 476.994 581.372 476.244ZM581.372 469.344 462.872 469.344 462.872 470.094 581.372 470.094 581.372 469.344ZM581.372 462.444 462.872 462.444 462.872 463.194 581.372 463.194 581.372 462.444ZM581.372 455.544 462.872 455.544 462.872 456.294 581.372 456.294 581.372 455.544ZM581.372 448.644 462.872 448.644 462.872 449.394 581.372 449.394 581.372 448.644ZM581.372 441.744 462.872 441.744 462.872 442.494 581.372 442.494 581.372 441.744ZM581.372 434.844 462.872 434.844 462.872 435.594 581.372 435.594 581.372 434.844ZM581.372 427.944 462.872 427.944 462.872 428.694 581.372 428.694 581.372 427.944ZM581.372 421.044 462.872 421.044 462.872 421.794 581.372 421.794 581.372 421.044ZM581.372 414.144 462.872 414.144 462.872 414.894 581.372 414.894 581.372 414.144ZM581.372 407.244 462.872 407.244 462.872 407.994 581.372 407.994 581.372 407.244ZM581.372 400.344 462.872 400.344 462.872 401.094 581.372 401.094 581.372 400.344Z" fill="#CFCFCF"/><path d="M943.406 384.333C940.562 378.114 921.057 380.652 891.623 385.232 871.57 388.353 848.842 391.891 846.698 387.43 846.227 386.452 846.656 384.377 851.373 380.053 854.337 377.336 855.287 374.536 854.195 371.729 850.163 361.363 818.388 354.75 803.118 354.75L799 354.75 799 350.25 774.25 350.25 774.25 361.12 799 361.12 799 356.25 803.118 356.25C820.275 356.25 849.357 363.428 852.797 372.273 853.654 374.476 852.857 376.658 850.36 378.947 845.906 383.03 844.313 385.932 845.346 388.08 847.796 393.176 864.551 390.963 891.854 386.714 914.167 383.241 939.458 379.305 942.042 384.956 942.786 386.582 941.801 390.11 932.882 397.678 894.591 430.167 902.59 459.319 912.716 496.227 915.857 507.674 919.104 519.511 921.378 532.628 926.146 560.139 913.672 575.905 902.368 584.286 882.87 598.743 853.664 601.073 845.259 596.842 844.396 596.408 843.367 595.692 843.367 594.749L843.367 587.999 846.367 587.999 846.367 569.999 838.867 569.999 838.867 587.999 841.867 587.999 841.867 594.749C841.867 595.691 842.339 597.051 844.585 598.182 847.154 599.475 851.638 600.23 857.217 600.23 870.096 600.23 888.81 596.207 903.262 585.49 914.905 576.858 927.755 560.635 922.857 532.371 920.57 519.184 917.313 507.31 914.163 495.83 909.049 477.19 904.632 461.092 906.127 445.424 907.762 428.292 916.572 413.484 933.853 398.822 941.805 392.074 944.841 387.469 943.406 384.333Z" fill="#CFCFCF"/><path d="M771.746 559.577 623.491 582.393 621.899 572.048 770.154 549.232 786.514 551.992Z" fill="#FFC000"/><path d="M646.001 570.843 736.44 556.926 736.554 557.668 646.116 571.585Z" fill="#FFFFFF"/><path d="M416.556 513 345.21 513C341.863 513 339.15 510.286 339.15 506.939L339.15 357.734C339.15 354.387 341.863 351.674 345.21 351.674L416.556 351.674C419.904 351.674 422.617 354.387 422.617 357.734L422.617 506.939C422.617 510.286 419.904 513 416.556 513Z" fill="#505050"/><path d="M357.453 436.615C357.453 439.02 355.503 440.969 353.098 440.969 350.693 440.969 348.743 439.02 348.743 436.615 348.743 434.21 350.693 432.26 353.098 432.26 355.503 432.26 357.453 434.21 357.453 436.615Z" fill="#737373"/><path d="M371.606 436.615C371.606 439.02 369.656 440.969 367.251 440.969 364.846 440.969 362.897 439.02 362.897 436.615 362.897 434.21 364.846 432.26 367.251 432.26 369.656 432.26 371.606 434.21 371.606 436.615Z" fill="#737373"/><path d="M355.168 412.561C355.168 414.164 353.868 415.464 352.265 415.464 350.661 415.464 349.362 414.164 349.362 412.561 349.362 410.957 350.661 409.658 352.265 409.658 353.868 409.658 355.168 410.957 355.168 412.561Z" fill="#CFCFCF"/><path d="M369.321 412.561C369.321 414.164 368.021 415.464 366.418 415.464 364.815 415.464 363.515 414.164 363.515 412.561 363.515 410.957 364.815 409.658 366.418 409.658 368.021 409.658 369.321 410.957 369.321 412.561Z" fill="#737373"/><path d="M385.759 436.615C385.759 439.02 383.809 440.969 381.404 440.969 379 440.969 377.05 439.02 377.05 436.615 377.05 434.21 379 432.26 381.404 432.26 383.809 432.26 385.759 434.21 385.759 436.615Z" fill="#737373"/><path d="M399.912 436.615C399.912 439.02 397.963 440.969 395.558 440.969 393.153 440.969 391.203 439.02 391.203 436.615 391.203 434.21 393.153 432.26 395.558 432.26 397.963 432.26 399.912 434.21 399.912 436.615Z" fill="#737373"/><path d="M414.065 436.615C414.065 439.02 412.116 440.969 409.711 440.969 407.306 440.969 405.357 439.02 405.357 436.615 405.357 434.21 407.306 432.26 409.711 432.26 412.116 432.26 414.065 434.21 414.065 436.615Z" fill="#737373"/><path d="M357.453 450.405C357.453 452.81 355.503 454.76 353.098 454.76 350.693 454.76 348.743 452.81 348.743 450.405 348.743 448 350.693 446.05 353.098 446.05 355.503 446.05 357.453 448 357.453 450.405Z" fill="#CFCFCF"/><path d="M371.606 450.405C371.606 452.81 369.656 454.76 367.251 454.76 364.846 454.76 362.897 452.81 362.897 450.405 362.897 448 364.846 446.05 367.251 446.05 369.656 446.05 371.606 448 371.606 450.405Z" fill="#737373"/><path d="M385.759 450.405C385.759 452.81 383.809 454.76 381.404 454.76 379 454.76 377.05 452.81 377.05 450.405 377.05 448 379 446.05 381.404 446.05 383.809 446.05 385.759 448 385.759 450.405Z" fill="#737373"/><path d="M399.912 450.405C399.912 452.81 397.963 454.76 395.558 454.76 393.153 454.76 391.203 452.81 391.203 450.405 391.203 448 393.153 446.05 395.558 446.05 397.963 446.05 399.912 448 399.912 450.405Z" fill="#737373"/><path d="M414.065 450.405C414.065 452.81 412.116 454.76 409.711 454.76 407.306 454.76 405.357 452.81 405.357 450.405 405.357 448 407.306 446.05 409.711 446.05 412.116 446.05 414.065 448 414.065 450.405Z" fill="#CFCFCF"/><path d="M357.453 464.195C357.453 466.6 355.503 468.55 353.098 468.55 350.693 468.55 348.743 466.6 348.743 464.195 348.743 461.79 350.693 459.841 353.098 459.841 355.503 459.841 357.453 461.79 357.453 464.195Z" fill="#CFCFCF"/><path d="M371.606 464.195C371.606 466.6 369.656 468.55 367.251 468.55 364.846 468.55 362.897 466.6 362.897 464.195 362.897 461.79 364.846 459.841 367.251 459.841 369.656 459.841 371.606 461.79 371.606 464.195Z" fill="#737373"/><path d="M385.759 464.195C385.759 466.6 383.809 468.55 381.404 468.55 379 468.55 377.05 466.6 377.05 464.195 377.05 461.79 379 459.841 381.404 459.841 383.809 459.841 385.759 461.79 385.759 464.195Z" fill="#737373"/><path d="M399.912 464.195C399.912 466.6 397.963 468.55 395.558 468.55 393.153 468.55 391.203 466.6 391.203 464.195 391.203 461.79 393.153 459.841 395.558 459.841 397.963 459.841 399.912 461.79 399.912 464.195Z" fill="#737373"/><path d="M414.065 464.195C414.065 466.6 412.116 468.55 409.711 468.55 407.306 468.55 405.357 466.6 405.357 464.195 405.357 461.79 407.306 459.841 409.711 459.841 412.116 459.841 414.065 461.79 414.065 464.195Z" fill="#CFCFCF"/><path d="M357.453 477.986C357.453 480.39 355.503 482.34 353.098 482.34 350.693 482.34 348.743 480.39 348.743 477.986 348.743 475.581 350.693 473.631 353.098 473.631 355.503 473.631 357.453 475.581 357.453 477.986Z" fill="#CFCFCF"/><path d="M371.606 477.986C371.606 480.39 369.656 482.34 367.251 482.34 364.846 482.34 362.897 480.39 362.897 477.986 362.897 475.581 364.846 473.631 367.251 473.631 369.656 473.631 371.606 475.581 371.606 477.986Z" fill="#737373"/><path d="M385.759 477.986C385.759 480.39 383.809 482.34 381.404 482.34 379 482.34 377.05 480.39 377.05 477.986 377.05 475.581 379 473.631 381.404 473.631 383.809 473.631 385.759 475.581 385.759 477.986Z" fill="#737373"/><path d="M399.912 477.986C399.912 480.39 397.963 482.34 395.558 482.34 393.153 482.34 391.203 480.39 391.203 477.986 391.203 475.581 393.153 473.631 395.558 473.631 397.963 473.631 399.912 475.581 399.912 477.986Z" fill="#737373"/><path d="M414.065 477.986C414.065 480.39 412.116 482.34 409.711 482.34 407.306 482.34 405.357 480.39 405.357 477.986 405.357 475.581 407.306 473.631 409.711 473.631 412.116 473.631 414.065 475.581 414.065 477.986Z" fill="#CFCFCF"/><path d="M357.453 491.776C357.453 494.181 355.503 496.13 353.098 496.13 350.693 496.13 348.743 494.181 348.743 491.776 348.743 489.371 350.693 487.421 353.098 487.421 355.503 487.421 357.453 489.371 357.453 491.776Z" fill="#CFCFCF"/><path d="M371.606 491.776C371.606 494.181 369.656 496.13 367.251 496.13 364.846 496.13 362.897 494.181 362.897 491.776 362.897 489.371 364.846 487.421 367.251 487.421 369.656 487.421 371.606 489.371 371.606 491.776Z" fill="#737373"/><path d="M385.759 491.776C385.759 494.181 383.809 496.13 381.404 496.13 379 496.13 377.05 494.181 377.05 491.776 377.05 489.371 379 487.421 381.404 487.421 383.809 487.421 385.759 489.371 385.759 491.776Z" fill="#CFCFCF"/><path d="M399.912 491.776C399.912 494.181 397.963 496.13 395.558 496.13 393.153 496.13 391.203 494.181 391.203 491.776 391.203 489.371 393.153 487.421 395.558 487.421 397.963 487.421 399.912 489.371 399.912 491.776Z" fill="#FFC000"/><path d="M414.065 491.776C414.065 494.181 412.116 496.13 409.711 496.13 407.306 496.13 405.357 494.181 405.357 491.776 405.357 489.371 407.306 487.421 409.711 487.421 412.116 487.421 414.065 489.371 414.065 491.776Z" fill="#CFCFCF"/><path d="M346.683 374.328 416.361 374.328 416.361 399.409 346.683 399.409Z" fill="#CFCFCF"/><path d="M346.19 363.806 363.897 363.806 363.897 367.412 346.19 367.412Z" fill="#CFCFCF"/><path d="M884.834 419.242C884.834 415.105 881.48 411.75 877.342 411.75L808.859 411.75C804.721 411.75 801.366 415.105 801.366 419.242L801.366 566.334C801.366 570.472 804.721 573.826 808.859 573.826L877.342 573.826C881.48 573.826 884.834 570.472 884.834 566.334L884.834 419.242Z" fill="#505050"/><path d="M805.54 420 880.661 420 880.661 564.232 805.54 564.232Z" fill="#E6E6E6"/><path d="M805.54 516.96 805.54 543.141 805.54 564.232 880.661 564.232 880.661 441.839Z" fill="#D2D2D2"/><path d="M862.117 510 823.117 510C821.874 510 820.867 508.993 820.867 507.75 820.867 506.507 821.874 505.5 823.117 505.5L862.117 505.5C863.36 505.5 864.367 506.507 864.367 507.75 864.367 508.993 863.36 510 862.117 510Z" fill="#FFFFFF"/><path d="M862.117 520.5 823.117 520.5C821.874 520.5 820.867 519.493 820.867 518.25 820.867 517.007 821.874 516 823.117 516L862.117 516C863.36 516 864.367 517.007 864.367 518.25 864.367 519.493 863.36 520.5 862.117 520.5Z" fill="#FFFFFF"/><path d="M774.25 324.75 783.367 324.75 783.367 345.75 774.25 345.75Z" fill="#737373"/><path d="M768.899 513 467.399 513C462.428 513 458.399 508.97 458.399 504L458.399 297C458.399 292.03 462.428 288 467.399 288L768.899 288C773.869 288 777.899 292.03 777.899 297L777.899 504C777.899 508.971 773.87 513 768.899 513Z" fill="#737373"/><path d="M505.649 285 731.399 285 731.399 306.75 505.649 306.75Z" fill="#2F2F2F"/><path d="M666.858 502.5 569.236 502.5C566.676 502.5 564.6 500.425 564.6 497.864L564.6 444.136C564.6 441.575 566.676 439.5 569.236 439.5L666.858 439.5C669.419 439.5 671.494 441.575 671.494 444.136L671.494 497.864C671.494 500.425 669.418 502.5 666.858 502.5Z" fill="#505050"/><path d="M757.071 429.75 479.907 429.635C476.779 429.634 474.243 427.097 474.243 423.969L474.243 310.568C474.243 307.437 476.781 304.901 479.912 304.901L757.076 305.016C760.204 305.018 762.74 307.554 762.74 310.682L762.74 424.084C762.74 427.214 760.202 429.752 757.071 429.75Z" fill="#505050"/><path d="M505.748 323.462 482.6 323.462C481.59 323.462 480.77 324.282 480.77 325.293L480.77 338.107C480.77 339.118 481.59 339.938 482.6 339.938L505.748 339.938C506.759 339.938 507.578 339.118 507.578 338.107L507.578 325.293C507.578 324.282 506.759 323.462 505.748 323.462Z" fill="#2F2F2F"/><path d="M511.028 338.107 511.028 325.293C511.028 324.282 511.848 323.462 512.859 323.462L525.672 323.462C526.683 323.462 527.503 324.282 527.503 325.293L527.503 338.107C527.503 339.118 526.683 339.938 525.672 339.938L512.859 339.938C511.848 339.938 511.028 339.118 511.028 338.107Z" fill="#2F2F2F"/><path d="M530.952 338.107 530.952 325.293C530.952 324.282 531.772 323.462 532.783 323.462L545.597 323.462C546.608 323.462 547.427 324.282 547.427 325.293L547.427 338.107C547.427 339.118 546.608 339.938 545.597 339.938L532.783 339.938C531.772 339.938 530.952 339.118 530.952 338.107Z" fill="#2F2F2F"/><path d="M550.878 338.107 550.878 325.293C550.878 324.282 551.697 323.462 552.708 323.462L565.522 323.462C566.533 323.462 567.353 324.282 567.353 325.293L567.353 338.107C567.353 339.118 566.533 339.938 565.522 339.938L552.708 339.938C551.697 339.938 550.878 339.118 550.878 338.107Z" fill="#2F2F2F"/><path d="M570.802 338.107 570.802 325.293C570.802 324.282 571.622 323.462 572.633 323.462L585.447 323.462C586.458 323.462 587.277 324.282 587.277 325.293L587.277 338.107C587.277 339.118 586.458 339.938 585.447 339.938L572.633 339.938C571.622 339.938 570.802 339.118 570.802 338.107Z" fill="#2F2F2F"/><path d="M590.727 338.107 590.727 325.293C590.727 324.282 591.546 323.462 592.557 323.462L605.371 323.462C606.382 323.462 607.202 324.282 607.202 325.293L607.202 338.107C607.202 339.118 606.382 339.938 605.371 339.938L592.557 339.938C591.546 339.938 590.727 339.118 590.727 338.107Z" fill="#2F2F2F"/><path d="M610.651 338.107 610.651 325.293C610.651 324.282 611.471 323.462 612.482 323.462L625.296 323.462C626.307 323.462 627.126 324.282 627.126 325.293L627.126 338.107C627.126 339.118 626.307 339.938 625.296 339.938L612.482 339.938C611.471 339.938 610.651 339.118 610.651 338.107Z" fill="#2F2F2F"/><path d="M630.576 338.107 630.576 325.293C630.576 324.282 631.395 323.462 632.406 323.462L645.22 323.462C646.231 323.462 647.051 324.282 647.051 325.293L647.051 338.107C647.051 339.118 646.231 339.938 645.22 339.938L632.406 339.938C631.395 339.938 630.576 339.118 630.576 338.107Z" fill="#2F2F2F"/><path d="M650.501 338.107 650.501 325.293C650.501 324.282 651.32 323.462 652.331 323.462L665.145 323.462C666.156 323.462 666.976 324.282 666.976 325.293L666.976 338.107C666.976 339.118 666.156 339.938 665.145 339.938L652.331 339.938C651.32 339.938 650.501 339.118 650.501 338.107Z" fill="#2F2F2F"/><path d="M670.425 338.107 670.425 325.293C670.425 324.282 671.245 323.462 672.256 323.462L685.07 323.462C686.081 323.462 686.901 324.282 686.901 325.293L686.901 338.107C686.901 339.118 686.081 339.938 685.07 339.938L672.256 339.938C671.244 339.938 670.425 339.118 670.425 338.107Z" fill="#2F2F2F"/><path d="M690.35 338.107 690.35 325.293C690.35 324.282 691.169 323.462 692.18 323.462L704.994 323.462C706.005 323.462 706.825 324.282 706.825 325.293L706.825 338.107C706.825 339.118 706.005 339.938 704.994 339.938L692.18 339.938C691.169 339.938 690.35 339.118 690.35 338.107Z" fill="#2F2F2F"/><path d="M710.274 338.107 710.274 325.293C710.274 324.282 711.094 323.462 712.105 323.462L724.919 323.462C725.93 323.462 726.75 324.282 726.75 325.293L726.75 338.107C726.75 339.118 725.93 339.938 724.919 339.938L712.105 339.938C711.094 339.938 710.274 339.118 710.274 338.107Z" fill="#2F2F2F"/><path d="M495.414 360.988 482.6 360.988C481.59 360.988 480.77 360.169 480.77 359.158L480.77 346.344C480.77 345.333 481.59 344.513 482.6 344.513L495.414 344.513C496.425 344.513 497.245 345.333 497.245 346.344L497.245 359.158C497.244 360.169 496.424 360.988 495.414 360.988Z" fill="#2F2F2F"/><path d="M500.694 359.158 500.694 346.344C500.694 345.333 501.514 344.513 502.525 344.513L515.339 344.513C516.35 344.513 517.169 345.333 517.169 346.344L517.169 359.158C517.169 360.169 516.35 360.988 515.339 360.988L502.525 360.988C501.514 360.988 500.694 360.169 500.694 359.158Z" fill="#2F2F2F"/><path d="M520.619 359.158 520.619 346.344C520.619 345.333 521.438 344.513 522.449 344.513L535.263 344.513C536.274 344.513 537.094 345.333 537.094 346.344L537.094 359.158C537.094 360.169 536.274 360.988 535.263 360.988L522.449 360.988C521.438 360.988 520.619 360.169 520.619 359.158Z" fill="#2F2F2F"/><path d="M540.543 359.158 540.543 346.344C540.543 345.333 541.363 344.513 542.374 344.513L555.188 344.513C556.199 344.513 557.018 345.333 557.018 346.344L557.018 359.158C557.018 360.169 556.199 360.988 555.188 360.988L542.374 360.988C541.363 360.988 540.543 360.169 540.543 359.158Z" fill="#2F2F2F"/><path d="M560.469 359.158 560.469 346.344C560.469 345.333 561.288 344.513 562.299 344.513L575.113 344.513C576.124 344.513 576.944 345.333 576.944 346.344L576.944 359.158C576.944 360.169 576.124 360.988 575.113 360.988L562.299 360.988C561.287 360.988 560.469 360.169 560.469 359.158Z" fill="#2F2F2F"/><path d="M580.393 359.158 580.393 346.344C580.393 345.333 581.213 344.513 582.224 344.513L595.037 344.513C596.049 344.513 596.868 345.333 596.868 346.344L596.868 359.158C596.868 360.169 596.049 360.988 595.037 360.988L582.224 360.988C581.213 360.988 580.393 360.169 580.393 359.158Z" fill="#2F2F2F"/><path d="M600.318 359.158 600.318 346.344C600.318 345.333 601.137 344.513 602.148 344.513L614.962 344.513C615.973 344.513 616.793 345.333 616.793 346.344L616.793 359.158C616.793 360.169 615.973 360.988 614.962 360.988L602.148 360.988C601.137 360.988 600.318 360.169 600.318 359.158Z" fill="#2F2F2F"/><path d="M620.242 359.158 620.242 346.344C620.242 345.333 621.062 344.513 622.073 344.513L634.886 344.513C635.897 344.513 636.717 345.333 636.717 346.344L636.717 359.158C636.717 360.169 635.897 360.988 634.886 360.988L622.073 360.988C621.062 360.988 620.242 360.169 620.242 359.158Z" fill="#2F2F2F"/><path d="M640.167 359.158 640.167 346.344C640.167 345.333 640.986 344.513 641.997 344.513L654.811 344.513C655.822 344.513 656.642 345.333 656.642 346.344L656.642 359.158C656.642 360.169 655.822 360.988 654.811 360.988L641.997 360.988C640.986 360.988 640.167 360.169 640.167 359.158Z" fill="#2F2F2F"/><path d="M660.092 359.158 660.092 346.344C660.092 345.333 660.911 344.513 661.922 344.513L674.736 344.513C675.747 344.513 676.567 345.333 676.567 346.344L676.567 359.158C676.567 360.169 675.747 360.988 674.736 360.988L661.922 360.988C660.911 360.988 660.092 360.169 660.092 359.158Z" fill="#2F2F2F"/><path d="M680.016 359.158 680.016 346.344C680.016 345.333 680.836 344.513 681.847 344.513L694.661 344.513C695.672 344.513 696.492 345.333 696.492 346.344L696.492 359.158C696.492 360.169 695.672 360.988 694.661 360.988L681.847 360.988C680.835 360.988 680.016 360.169 680.016 359.158Z" fill="#2F2F2F"/><path d="M699.941 359.158 699.941 346.344C699.941 345.333 700.76 344.513 701.771 344.513L714.585 344.513C715.596 344.513 716.416 345.333 716.416 346.344L716.416 359.158C716.416 360.169 715.596 360.988 714.585 360.988L701.771 360.988C700.76 360.988 699.941 360.169 699.941 359.158Z" fill="#2F2F2F"/><path d="M719.865 359.158 719.865 346.344C719.865 345.333 720.685 344.513 721.696 344.513L734.51 344.513C735.521 344.513 736.34 345.333 736.34 346.344L736.34 359.158C736.34 360.169 735.521 360.988 734.51 360.988L721.696 360.988C720.685 360.988 719.865 360.169 719.865 359.158Z" fill="#2F2F2F"/><path d="M754.434 360.988 741.62 360.988C740.609 360.988 739.79 360.169 739.79 359.158L739.79 346.344C739.79 345.333 740.609 344.513 741.62 344.513L754.434 344.513C755.445 344.513 756.265 345.333 756.265 346.344L756.265 359.158C756.265 360.169 755.445 360.988 754.434 360.988Z" fill="#2F2F2F"/><path d="M495.414 318.887 482.6 318.887C481.59 318.887 480.77 318.067 480.77 317.056L480.77 312.479C480.77 311.468 481.59 310.648 482.6 310.648L495.414 310.648C496.425 310.648 497.245 311.468 497.245 312.479L497.245 317.056C497.244 318.067 496.424 318.887 495.414 318.887Z" fill="#2F2F2F"/><path d="M500.694 317.056 500.694 312.479C500.694 311.468 501.514 310.648 502.525 310.648L515.339 310.648C516.35 310.648 517.169 311.468 517.169 312.479L517.169 317.056C517.169 318.067 516.35 318.887 515.339 318.887L502.525 318.887C501.514 318.887 500.694 318.067 500.694 317.056Z" fill="#2F2F2F"/><path d="M520.619 317.056 520.619 312.479C520.619 311.468 521.438 310.648 522.449 310.648L535.263 310.648C536.274 310.648 537.094 311.468 537.094 312.479L537.094 317.056C537.094 318.067 536.274 318.887 535.263 318.887L522.449 318.887C521.438 318.887 520.619 318.067 520.619 317.056Z" fill="#2F2F2F"/><path d="M540.543 317.056 540.543 312.479C540.543 311.468 541.363 310.648 542.374 310.648L555.188 310.648C556.199 310.648 557.018 311.468 557.018 312.479L557.018 317.056C557.018 318.067 556.199 318.887 555.188 318.887L542.374 318.887C541.363 318.887 540.543 318.067 540.543 317.056Z" fill="#2F2F2F"/><path d="M560.469 317.056 560.469 312.479C560.469 311.468 561.288 310.648 562.299 310.648L575.113 310.648C576.124 310.648 576.944 311.468 576.944 312.479L576.944 317.056C576.944 318.067 576.124 318.887 575.113 318.887L562.299 318.887C561.287 318.887 560.469 318.067 560.469 317.056Z" fill="#2F2F2F"/><path d="M580.393 317.056 580.393 312.479C580.393 311.468 581.213 310.648 582.224 310.648L595.037 310.648C596.049 310.648 596.868 311.468 596.868 312.479L596.868 317.056C596.868 318.067 596.049 318.887 595.037 318.887L582.224 318.887C581.213 318.887 580.393 318.067 580.393 317.056Z" fill="#2F2F2F"/><path d="M600.318 317.056 600.318 312.479C600.318 311.468 601.137 310.648 602.148 310.648L614.962 310.648C615.973 310.648 616.793 311.468 616.793 312.479L616.793 317.056C616.793 318.067 615.973 318.887 614.962 318.887L602.148 318.887C601.137 318.887 600.318 318.067 600.318 317.056Z" fill="#2F2F2F"/><path d="M620.242 317.056 620.242 312.479C620.242 311.468 621.062 310.648 622.073 310.648L634.886 310.648C635.897 310.648 636.717 311.468 636.717 312.479L636.717 317.056C636.717 318.067 635.897 318.887 634.886 318.887L622.073 318.887C621.062 318.887 620.242 318.067 620.242 317.056Z" fill="#2F2F2F"/><path d="M640.167 317.056 640.167 312.479C640.167 311.468 640.986 310.648 641.997 310.648L654.811 310.648C655.822 310.648 656.642 311.468 656.642 312.479L656.642 317.056C656.642 318.067 655.822 318.887 654.811 318.887L641.997 318.887C640.986 318.887 640.167 318.067 640.167 317.056Z" fill="#2F2F2F"/><path d="M660.092 317.056 660.092 312.479C660.092 311.468 660.911 310.648 661.922 310.648L674.736 310.648C675.747 310.648 676.567 311.468 676.567 312.479L676.567 317.056C676.567 318.067 675.747 318.887 674.736 318.887L661.922 318.887C660.911 318.887 660.092 318.067 660.092 317.056Z" fill="#2F2F2F"/><path d="M680.016 317.056 680.016 312.479C680.016 311.468 680.836 310.648 681.847 310.648L694.661 310.648C695.672 310.648 696.492 311.468 696.492 312.479L696.492 317.056C696.492 318.067 695.672 318.887 694.661 318.887L681.847 318.887C680.835 318.887 680.016 318.067 680.016 317.056Z" fill="#2F2F2F"/><path d="M699.941 317.056 699.941 312.479C699.941 311.468 700.76 310.648 701.771 310.648L714.585 310.648C715.596 310.648 716.416 311.468 716.416 312.479L716.416 317.056C716.416 318.067 715.596 318.887 714.585 318.887L701.771 318.887C700.76 318.887 699.941 318.067 699.941 317.056Z" fill="#2F2F2F"/><path d="M719.865 317.056 719.865 312.479C719.865 311.468 720.685 310.648 721.696 310.648L734.51 310.648C735.521 310.648 736.34 311.468 736.34 312.479L736.34 317.056C736.34 318.067 735.521 318.887 734.51 318.887L721.696 318.887C720.685 318.887 719.865 318.067 719.865 317.056Z" fill="#2F2F2F"/><path d="M754.434 318.887 741.62 318.887C740.609 318.887 739.79 318.067 739.79 317.056L739.79 312.479C739.79 311.468 740.609 310.648 741.62 310.648L754.434 310.648C755.445 310.648 756.265 311.468 756.265 312.479L756.265 317.056C756.265 318.067 755.445 318.887 754.434 318.887Z" fill="#2F2F2F"/><path d="M505.748 365.565 482.6 365.565C481.59 365.565 480.77 366.385 480.77 367.396L480.77 380.21C480.77 381.221 481.59 382.04 482.6 382.04L505.748 382.04C506.759 382.04 507.578 381.221 507.578 380.21L507.578 367.395C507.578 366.384 506.759 365.565 505.748 365.565Z" fill="#2F2F2F"/><path d="M754.7 365.565 731.552 365.565C730.542 365.565 729.722 366.385 729.722 367.396L729.722 380.21C729.722 381.221 730.542 382.04 731.552 382.04L754.7 382.04C755.711 382.04 756.531 381.221 756.531 380.21L756.531 367.395C756.531 366.384 755.711 365.565 754.7 365.565Z" fill="#2F2F2F"/><path d="M754.7 323.462 731.552 323.462C730.542 323.462 729.722 324.282 729.722 325.293L729.722 338.107C729.722 339.118 730.542 339.938 731.552 339.938L754.7 339.938C755.711 339.938 756.531 339.118 756.531 338.107L756.531 325.293C756.531 324.282 755.711 323.462 754.7 323.462Z" fill="#2F2F2F"/><path d="M511.028 380.209 511.028 367.395C511.028 366.384 511.848 365.564 512.859 365.564L525.672 365.564C526.683 365.564 527.503 366.384 527.503 367.395L527.503 380.209C527.503 381.22 526.683 382.039 525.672 382.039L512.859 382.039C511.848 382.039 511.028 381.22 511.028 380.209Z" fill="#2F2F2F"/><path d="M530.952 380.209 530.952 367.395C530.952 366.384 531.772 365.564 532.783 365.564L545.597 365.564C546.608 365.564 547.427 366.384 547.427 367.395L547.427 380.209C547.427 381.22 546.608 382.039 545.597 382.039L532.783 382.039C531.772 382.039 530.952 381.22 530.952 380.209Z" fill="#2F2F2F"/><path d="M550.878 380.209 550.878 367.395C550.878 366.384 551.697 365.564 552.708 365.564L565.522 365.564C566.533 365.564 567.353 366.384 567.353 367.395L567.353 380.209C567.353 381.22 566.533 382.039 565.522 382.039L552.708 382.039C551.697 382.039 550.878 381.22 550.878 380.209Z" fill="#2F2F2F"/><path d="M570.802 380.209 570.802 367.395C570.802 366.384 571.622 365.564 572.633 365.564L585.447 365.564C586.458 365.564 587.277 366.384 587.277 367.395L587.277 380.209C587.277 381.22 586.458 382.039 585.447 382.039L572.633 382.039C571.622 382.039 570.802 381.22 570.802 380.209Z" fill="#2F2F2F"/><path d="M590.727 380.209 590.727 367.395C590.727 366.384 591.546 365.564 592.557 365.564L605.371 365.564C606.382 365.564 607.202 366.384 607.202 367.395L607.202 380.209C607.202 381.22 606.382 382.039 605.371 382.039L592.557 382.039C591.546 382.039 590.727 381.22 590.727 380.209Z" fill="#2F2F2F"/><path d="M610.651 380.209 610.651 367.395C610.651 366.384 611.471 365.564 612.482 365.564L625.296 365.564C626.307 365.564 627.126 366.384 627.126 367.395L627.126 380.209C627.126 381.22 626.307 382.039 625.296 382.039L612.482 382.039C611.471 382.039 610.651 381.22 610.651 380.209Z" fill="#2F2F2F"/><path d="M630.576 380.209 630.576 367.395C630.576 366.384 631.395 365.564 632.406 365.564L645.22 365.564C646.231 365.564 647.051 366.384 647.051 367.395L647.051 380.209C647.051 381.22 646.231 382.039 645.22 382.039L632.406 382.039C631.395 382.039 630.576 381.22 630.576 380.209Z" fill="#2F2F2F"/><path d="M650.501 380.209 650.501 367.395C650.501 366.384 651.32 365.564 652.331 365.564L665.145 365.564C666.156 365.564 666.976 366.384 666.976 367.395L666.976 380.209C666.976 381.22 666.156 382.039 665.145 382.039L652.331 382.039C651.32 382.039 650.501 381.22 650.501 380.209Z" fill="#2F2F2F"/><path d="M670.425 380.209 670.425 367.395C670.425 366.384 671.245 365.564 672.256 365.564L685.07 365.564C686.081 365.564 686.901 366.384 686.901 367.395L686.901 380.209C686.901 381.22 686.081 382.039 685.07 382.039L672.256 382.039C671.244 382.039 670.425 381.22 670.425 380.209Z" fill="#2F2F2F"/><path d="M690.35 380.209 690.35 367.395C690.35 366.384 691.169 365.564 692.18 365.564L704.994 365.564C706.005 365.564 706.825 366.384 706.825 367.395L706.825 380.209C706.825 381.22 706.005 382.039 704.994 382.039L692.18 382.039C691.169 382.039 690.35 381.22 690.35 380.209Z" fill="#2F2F2F"/><path d="M710.274 380.209 710.274 367.395C710.274 366.384 711.094 365.564 712.105 365.564L724.919 365.564C725.93 365.564 726.75 366.384 726.75 367.395L726.75 380.209C726.75 381.22 725.93 382.039 724.919 382.039L712.105 382.039C711.094 382.039 710.274 381.22 710.274 380.209Z" fill="#2F2F2F"/><path d="M515.497 403.09 482.6 403.09C481.589 403.09 480.769 402.271 480.769 401.26L480.769 388.446C480.769 387.435 481.589 386.615 482.6 386.615L515.497 386.615C516.508 386.615 517.328 387.435 517.328 388.446L517.328 401.26C517.328 402.271 516.508 403.09 515.497 403.09Z" fill="#2F2F2F"/><path d="M520.619 401.26 520.619 388.446C520.619 387.435 521.438 386.615 522.449 386.615L535.263 386.615C536.274 386.615 537.094 387.435 537.094 388.446L537.094 401.26C537.094 402.271 536.274 403.09 535.263 403.09L522.449 403.09C521.438 403.09 520.619 402.271 520.619 401.26Z" fill="#2F2F2F"/><path d="M540.543 401.26 540.543 388.446C540.543 387.435 541.363 386.615 542.374 386.615L555.188 386.615C556.199 386.615 557.018 387.435 557.018 388.446L557.018 401.26C557.018 402.271 556.199 403.09 555.188 403.09L542.374 403.09C541.363 403.09 540.543 402.271 540.543 401.26Z" fill="#2F2F2F"/><path d="M560.469 401.26 560.469 388.446C560.469 387.435 561.288 386.615 562.299 386.615L575.113 386.615C576.124 386.615 576.944 387.435 576.944 388.446L576.944 401.26C576.944 402.271 576.124 403.09 575.113 403.09L562.299 403.09C561.287 403.09 560.469 402.271 560.469 401.26Z" fill="#2F2F2F"/><path d="M580.393 401.26 580.393 388.446C580.393 387.435 581.213 386.615 582.224 386.615L595.037 386.615C596.049 386.615 596.868 387.435 596.868 388.446L596.868 401.26C596.868 402.271 596.049 403.09 595.037 403.09L582.224 403.09C581.213 403.09 580.393 402.271 580.393 401.26Z" fill="#2F2F2F"/><path d="M600.318 401.26 600.318 388.446C600.318 387.435 601.137 386.615 602.148 386.615L614.962 386.615C615.973 386.615 616.793 387.435 616.793 388.446L616.793 401.26C616.793 402.271 615.973 403.09 614.962 403.09L602.148 403.09C601.137 403.09 600.318 402.271 600.318 401.26Z" fill="#2F2F2F"/><path d="M620.242 401.26 620.242 388.446C620.242 387.435 621.062 386.615 622.073 386.615L634.886 386.615C635.897 386.615 636.717 387.435 636.717 388.446L636.717 401.26C636.717 402.271 635.897 403.09 634.886 403.09L622.073 403.09C621.062 403.09 620.242 402.271 620.242 401.26Z" fill="#2F2F2F"/><path d="M640.167 401.26 640.167 388.446C640.167 387.435 640.986 386.615 641.997 386.615L654.811 386.615C655.822 386.615 656.642 387.435 656.642 388.446L656.642 401.26C656.642 402.271 655.822 403.09 654.811 403.09L641.997 403.09C640.986 403.09 640.167 402.271 640.167 401.26Z" fill="#2F2F2F"/><path d="M660.092 401.26 660.092 388.446C660.092 387.435 660.911 386.615 661.922 386.615L674.736 386.615C675.747 386.615 676.567 387.435 676.567 388.446L676.567 401.26C676.567 402.271 675.747 403.09 674.736 403.09L661.922 403.09C660.911 403.09 660.092 402.271 660.092 401.26Z" fill="#2F2F2F"/><path d="M680.016 401.26 680.016 388.446C680.016 387.435 680.836 386.615 681.847 386.615L694.661 386.615C695.672 386.615 696.492 387.435 696.492 388.446L696.492 401.26C696.492 402.271 695.672 403.09 694.661 403.09L681.847 403.09C680.835 403.09 680.016 402.271 680.016 401.26Z" fill="#2F2F2F"/><path d="M699.941 401.26 699.941 388.446C699.941 387.435 700.76 386.615 701.771 386.615L714.585 386.615C715.596 386.615 716.416 387.435 716.416 388.446L716.416 401.26C716.416 402.271 715.596 403.09 714.585 403.09L701.771 403.09C700.76 403.09 699.941 402.271 699.941 401.26Z" fill="#2F2F2F"/><path d="M719.865 401.26 719.865 388.446C720.58 387.731 720.981 387.33 721.696 386.615L754.38 386.615C755.095 387.33 755.496 387.731 756.211 388.446L756.211 401.26C755.496 401.974 755.095 402.376 754.38 403.09L721.696 403.09C720.981 402.376 720.58 401.975 719.865 401.26Z" fill="#2F2F2F"/><path d="M495.414 423.725 482.6 423.725C481.59 423.725 480.77 422.906 480.77 421.895L480.77 409.081C480.77 408.07 481.59 407.25 482.6 407.25L495.414 407.25C496.425 407.25 497.245 408.07 497.245 409.081L497.245 421.895C497.244 422.906 496.424 423.725 495.414 423.725Z" fill="#2F2F2F"/><path d="M500.694 421.895 500.694 409.081C500.694 408.07 501.514 407.25 502.525 407.25L515.339 407.25C516.35 407.25 517.169 408.07 517.169 409.081L517.169 421.895C517.169 422.906 516.35 423.725 515.339 423.725L502.525 423.725C501.514 423.725 500.694 422.906 500.694 421.895Z" fill="#2F2F2F"/><path d="M520.619 421.895 520.619 409.081C520.619 408.07 521.438 407.25 522.449 407.25L535.263 407.25C536.274 407.25 537.094 408.07 537.094 409.081L537.094 421.895C537.094 422.906 536.274 423.725 535.263 423.725L522.449 423.725C521.438 423.725 520.619 422.906 520.619 421.895Z" fill="#2F2F2F"/><path d="M540.543 421.895 540.543 409.081C541.554 409.081 542.374 408.261 542.374 407.25L555.188 407.25C555.188 408.261 556.008 409.081 557.018 409.081L557.018 421.895C556.008 421.895 555.188 422.714 555.188 423.725L542.374 423.725C542.374 422.714 541.554 421.895 540.543 421.895Z" fill="#2F2F2F"/><path d="M560.083 421.895 560.083 409.081C560.083 408.07 560.903 407.25 561.914 407.25L674.807 407.25C675.818 407.25 676.637 408.07 676.637 409.081L676.637 421.895C676.637 422.906 675.818 423.725 674.807 423.725L561.913 423.725C560.902 423.725 560.083 422.906 560.083 421.895Z" fill="#2F2F2F"/><path d="M680.016 421.895 680.016 409.081C680.016 408.07 680.836 407.25 681.847 407.25L694.661 407.25C695.672 407.25 696.492 408.07 696.492 409.081L696.492 421.895C696.492 422.906 695.672 423.725 694.661 423.725L681.847 423.725C680.835 423.725 680.016 422.906 680.016 421.895Z" fill="#2F2F2F"/><path d="M700.019 421.895 700.019 409.081C700.019 408.07 700.839 407.25 701.849 407.25L714.663 407.25C715.674 407.25 716.494 408.07 716.494 409.081L716.494 421.895C716.494 422.906 715.674 423.725 714.663 423.725L701.849 423.725C700.839 423.725 700.019 422.906 700.019 421.895Z" fill="#2F2F2F"/><path d="M739.691 421.973 739.691 409.159C739.691 408.148 740.51 407.328 741.521 407.328L754.335 407.328C755.346 407.328 756.166 408.148 756.166 409.159L756.166 421.973C756.166 422.984 755.346 423.803 754.335 423.803L741.521 423.803C740.51 423.803 739.691 422.984 739.691 421.973Z" fill="#2F2F2F"/><path d="M734.913 414.75 722.099 414.75C721.089 414.75 720.269 413.93 720.269 412.919L720.269 409.08C720.269 408.069 721.089 407.249 722.099 407.249L734.913 407.249C735.924 407.249 736.744 408.069 736.744 409.08L736.744 412.919C736.744 413.93 735.924 414.75 734.913 414.75Z" fill="#2F2F2F"/><path d="M734.913 423.75 722.099 423.75C721.089 423.75 720.269 422.93 720.269 421.919L720.269 418.08C720.269 417.069 721.089 416.249 722.099 416.249L734.913 416.249C735.924 416.249 736.744 417.069 736.744 418.08L736.744 421.919C736.744 422.93 735.924 423.75 734.913 423.75Z" fill="#2F2F2F"/><path d="M428.924 147.25 428.924 143.111C428.924 137.5 432.01 132.25 437.729 132.25L798.927 132.25C804.647 132.25 807.733 136.75 807.733 143.111L807.733 148 428.924 147.25Z" fill="#CFCFCF"/><path d="M466.68 277.872 580.079 277.872 700.08 157.872 442.091 157.872Z" fill="#F2F2F2"/><path d="M770.565 277.497 793.945 158.247 697.372 158.247 578.121 277.497Z" fill="#E6E6E6"/><path d="M468.328 276.493 444.304 159.25 697.867 159.25 718.48 138.637 717.338 138.282 437.747 138.282C432.022 138.282 427.752 143.557 428.945 149.157L457.06 281.126C457.945 285.28 461.615 288.251 465.863 288.251L568.867 288.251 580.623 276.494 468.328 276.494Z" fill="#2F2F2F"/><path d="M798.909 138.282 717.335 138.282 696.366 159.251 791.315 159.251 768.327 276.494 579.123 276.494 567.367 288.251 770.793 288.251C775.041 288.251 778.711 285.28 779.596 281.126L807.711 149.157C808.904 143.557 804.634 138.282 798.909 138.282Z" fill="#505050"/><path d="M658.677 228.898 580.677 228.898C579.435 228.898 578.427 227.891 578.427 226.648 578.427 225.405 579.435 224.398 580.677 224.398L658.677 224.398C659.92 224.398 660.927 225.405 660.927 226.648 660.927 227.891 659.92 228.898 658.677 228.898Z" fill="#FFFFFF"/></g></svg>